<svg
    fill="#FFFFFF"
    xmlns="http://www.w3.org/2000/svg"
    xmlns-xlink="http://www.w3.org/1999/xlink"
    version="1.1"
    x="0px"
    y="0px"
    viewBox="0 0 100 100"
    enable-background="new 0 0 100 100"
    xml-space="preserve"
>
    <g>
    <path d="M31.336,71.678c0.276,0,0.5-0.224,0.5-0.5v-5.667c0-0.276-0.224-0.5-0.5-0.5s-0.5,0.224-0.5,0.5v5.667   C30.836,71.454,31.06,71.678,31.336,71.678z"></path>
    <path d="M32.038,54.814c0.276,0,0.5-0.224,0.5-0.5v-5.666c0-0.276-0.224-0.5-0.5-0.5s-0.5,0.224-0.5,0.5v5.666   C31.538,54.591,31.762,54.814,32.038,54.814z"></path>
    <path d="M35.413,83.511c0.276,0,0.5-0.224,0.5-0.5v-5.667c0-0.276-0.224-0.5-0.5-0.5s-0.5,0.224-0.5,0.5v5.667   C34.913,83.287,35.137,83.511,35.413,83.511z"></path>
    <path d="M41.663,68.344c-0.276,0-0.5,0.224-0.5,0.5v5.667c0,0.276,0.224,0.5,0.5,0.5s0.5-0.224,0.5-0.5v-5.667   C42.163,68.567,41.939,68.344,41.663,68.344z"></path>
    <path d="M50.413,75.849c-0.276,0-0.5,0.224-0.5,0.5v5.667c0,0.276,0.224,0.5,0.5,0.5c0.276,0,0.5-0.224,0.5-0.5v-5.667   C50.912,76.072,50.688,75.849,50.413,75.849z"></path>
    <path d="M59.163,77.844c-0.276,0-0.5,0.224-0.5,0.5v5.667c0,0.276,0.224,0.5,0.5,0.5s0.5-0.224,0.5-0.5v-5.667   C59.663,78.067,59.439,77.844,59.163,77.844z"></path>
    <path d="M61.663,65.011c-0.276,0-0.5,0.224-0.5,0.5v5.667c0,0.276,0.224,0.5,0.5,0.5s0.5-0.224,0.5-0.5v-5.667   C62.163,65.234,61.939,65.011,61.663,65.011z"></path>
    <path d="M67.163,61.678c0.276,0,0.5-0.224,0.5-0.5v-5.666c0-0.276-0.224-0.5-0.5-0.5s-0.5,0.224-0.5,0.5v5.666   C66.663,61.454,66.887,61.678,67.163,61.678z"></path>
    <circle cx="60.813" cy="36.25" r="2.5"></circle>
    <circle cx="39.312" cy="36.25" r="2.5"></circle>
    <path d="M38.705,54.257c0.1,0,0.201-0.015,0.301-0.046c0.673-0.213,1.362-0.387,2.051-0.559c1.957,2.994,5.345,4.848,9.006,4.848   c3.643,0,7.024-1.84,8.984-4.815c0.659,0.164,1.32,0.327,1.96,0.526c0.449,0.14,0.938-0.053,1.168-0.464   c0.879-1.56,1.325-3.232,1.325-4.973c0-6.331-6.056-11.481-13.499-11.481s-13.499,5.15-13.499,11.481   c0,1.736,0.449,3.41,1.333,4.975C38.015,54.069,38.352,54.257,38.705,54.257z M50.062,56.5c-2.717,0-5.256-1.241-6.889-3.299   c2.218-0.411,4.496-0.644,6.827-0.644c2.313,0,4.65,0.245,6.928,0.672C55.293,55.27,52.764,56.5,50.062,56.5z M50,39.293   c6.341,0,11.499,4.253,11.499,9.481c0,1.134-0.238,2.236-0.71,3.284c-3.108-0.888-6.434-1.373-9.727-1.464v-3.663   c2.282-0.311,4-1.664,4-3.286c0-1.852-2.239-3.354-5-3.354s-5,1.502-5,3.354c0,1.622,1.718,2.975,4,3.286v3.658   c-3.396,0.077-6.704,0.556-9.846,1.468c-0.475-1.052-0.715-2.152-0.715-3.283C38.501,43.546,43.659,39.293,50,39.293z"></path>
    <circle cx="41.566" cy="47.643" r="0.625"></circle>
    <circle cx="43.566" cy="46.288" r="0.625"></circle>
    <circle cx="43.566" cy="49.133" r="0.625"></circle>
    <circle cx="58.625" cy="47.643" r="0.625"></circle>
    <circle cx="56.625" cy="46.288" r="0.625"></circle>
    <circle cx="56.625" cy="49.133" r="0.625"></circle>
    <path d="M50,7C26.29,7,7,26.29,7,50c0,23.71,19.29,43,43,43c23.71,0,43-19.29,43-43C93,26.29,73.71,7,50,7z M29.699,31.545   c0-0.309,0.121-0.6,0.339-0.818c0.354-0.355,0.878-0.42,1.308-0.218c-0.522,0.5-1.025,1.018-1.506,1.558   C29.756,31.905,29.699,31.732,29.699,31.545z M50,27c12.683,0,23,10.318,23,23v28.951c-1.183,0.941-2.419,1.816-3.712,2.61v-5.213   c0-0.276-0.224-0.5-0.5-0.5s-0.5,0.224-0.5,0.5v5.667c0,0.041,0.014,0.077,0.023,0.115C62.907,85.223,56.659,87,50,87   c-8.688,0-16.681-3.018-23.001-8.05L27,50C27,37.318,37.318,27,50,27z M70.183,32.092c-0.482-0.543-0.988-1.065-1.512-1.568   c0.434-0.217,0.97-0.159,1.331,0.203C70.373,31.098,70.422,31.652,70.183,32.092z M77,75.261V50c0-5.396-1.597-10.422-4.334-14.644   l0.164-0.165c2.011-2.011,2.011-5.282,0-7.293c-2.01-2.011-5.283-2.011-7.293,0l-0.023,0.023C61.12,24.826,55.771,23,50,23   c-5.761,0-11.102,1.819-15.491,4.906l-0.007-0.007c-2.01-2.011-5.282-2.011-7.292,0c-0.974,0.974-1.511,2.269-1.511,3.647   s0.537,2.673,1.511,3.646l0.14,0.14C24.603,39.559,23,44.594,23,50l-0.001,25.26C16.804,68.642,13,59.759,13,50   c0-20.402,16.598-37,37-37c20.402,0,37,16.598,37,37C87,59.76,83.195,68.643,77,75.261z"></path>
    </g>
</svg>